<svg width="43" height="41" viewBox="0 0 43 41" fill="none" xmlns="http://www.w3.org/2000/svg">
<path d="M16.9364 31.5866V30.8389L16.2901 30.4629C13.1715 28.6487 11.0727 25.2886 11.0727 21.4296C11.0727 15.6682 15.75 10.9874 21.5 10.9874C27.25 10.9874 31.9273 15.6682 31.9273 21.4296C31.9273 25.2886 29.8285 28.6487 26.7099 30.4629L26.0636 30.8389V31.5866V39.7H16.9364V31.5866ZM33.5961 8.41272L35.2626 6.73482L36.1812 7.65458L34.5147 9.33248L33.5961 8.41272ZM20.8455 4.47327V1.3H22.1545V4.47327H20.8455ZM41.7 20.7726V22.0866H38.4364V20.7726H41.7ZM1.3 20.7726H4.56364V22.0866H1.3V20.7726ZM6.8435 7.6299L7.75698 6.71526L9.42343 8.39315L8.51926 9.29847L6.8435 7.6299Z" fill="white" stroke="white" stroke-width="2.6"/>
</svg>
