<svg width="125" height="30" viewBox="0 0 125 30" fill="none" xmlns="http://www.w3.org/2000/svg">
<g clip-path="url(#clip0_21_15)">
<path d="M0 6.2474C0 5.09681 0.942163 4.16406 2.10438 4.16406H17.6768V5.41406C17.6768 6.56465 16.7346 7.4974 15.5724 7.4974H0V6.2474Z" fill="url(#paint0_linear_21_15)"/>
<path d="M0 26.25H32.4074V27.5C32.4074 28.6506 31.4652 29.5833 30.303 29.5833H2.10438C0.942163 29.5833 0 28.6506 0 27.5V26.25Z" fill="url(#paint1_linear_21_15)"/>
<path d="M0 7.5H3.367V27.0833H0V7.5Z" fill="url(#paint2_linear_21_15)"/>
<path d="M29.041 9.58333C29.041 8.43275 29.9832 7.5 31.1454 7.5H32.408V27.0833H29.041V9.58333Z" fill="url(#paint3_linear_21_15)"/>
<path d="M9.25977 17.5H17.2564V19.5833H9.25977V17.5Z" fill="url(#paint4_linear_21_15)"/>
<path d="M24.6635 0.231615C24.6492 0.102149 24.5414 0 24.4099 0C24.2783 0 24.1705 0.102149 24.1563 0.231615C23.9426 2.16704 22.3901 3.70405 20.4351 3.91559C20.3043 3.92974 20.2012 4.03644 20.2012 4.16666C20.2012 4.29688 20.3043 4.40358 20.4351 4.41775C22.3901 4.62925 23.9427 6.16625 24.1563 8.10171C24.1706 8.23117 24.2784 8.33333 24.41 8.33333C24.5415 8.33333 24.6493 8.23117 24.6636 8.10171C24.8773 6.16629 26.4298 4.62929 28.3848 4.41775C28.5155 4.40358 28.6187 4.29688 28.6187 4.16667C28.6187 4.03645 28.5155 3.92975 28.3848 3.9156C26.4297 3.70409 24.8772 2.16706 24.6635 0.231615Z" fill="url(#paint5_linear_21_15)"/>
<path d="M22.7266 9.58594H26.0936V24.1693H22.7266V9.58594Z" fill="url(#paint6_linear_21_15)"/>
<path d="M5.4707 24.0932H5.95934C7.37306 24.0932 8.07992 24.0932 8.62125 23.7211C9.16254 23.3488 9.40942 22.6931 9.90311 21.3817L12.3641 14.8445C13.5119 12.5403 13.9583 13.866 14.5003 14.8445L16.9883 21.3934C17.4845 22.6994 17.7325 23.3524 18.273 23.7228C18.8135 24.0932 19.5182 24.0932 20.9276 24.0932H21.3937L16.3815 12.0037C13.9264 7.9633 11.5351 10.3623 10.6423 12.0037L5.4707 24.0932Z" fill="url(#paint7_linear_21_15)"/>
<path d="M47.2212 8.91719L47.0444 10.7672H43.1555V25.4172H40.201V10.7672H36.2363V8.91719H47.2212ZM51.3264 12.1672C53.2119 12.1672 54.6092 12.7755 55.5183 13.9922C56.4274 15.1922 56.882 16.8172 56.882 18.8672C56.882 21.0505 56.4442 22.7839 55.5688 24.0672C54.6934 25.3339 53.2793 25.9672 51.3264 25.9672C49.4072 25.9672 48.0015 25.3589 47.1092 24.1422C46.2338 22.9255 45.7961 21.2505 45.7961 19.1172C45.7961 17.0505 46.2506 15.3755 47.1597 14.0922C48.0688 12.8089 49.4577 12.1672 51.3264 12.1672ZM51.3264 24.4672C52.3702 24.4672 53.052 23.9589 53.3718 22.9422C53.6917 21.9255 53.8516 20.6089 53.8516 18.9922C53.8516 17.5089 53.6749 16.2505 53.3213 15.2172C52.9846 14.1839 52.3197 13.6672 51.3264 13.6672C49.6597 13.6672 48.8264 15.4422 48.8264 18.9922C48.8264 20.6089 48.9779 21.9255 49.2809 22.9422C49.6008 23.9589 50.2826 24.4672 51.3264 24.4672ZM63.5217 12.1672C65.4072 12.1672 66.8045 12.7755 67.7136 13.9922C68.6227 15.1922 69.0772 16.8172 69.0772 18.8672C69.0772 21.0505 68.6395 22.7839 67.7641 24.0672C66.8887 25.3339 65.4745 25.9672 63.5217 25.9672C61.6025 25.9672 60.1968 25.3589 59.3045 24.1422C58.4291 22.9255 57.9914 21.2505 57.9914 19.1172C57.9914 17.0505 58.4459 15.3755 59.355 14.0922C60.2641 12.8089 61.653 12.1672 63.5217 12.1672ZM63.5217 24.4672C64.5654 24.4672 65.2473 23.9589 65.5671 22.9422C65.887 21.9255 66.0469 20.6089 66.0469 18.9922C66.0469 17.5089 65.8702 16.2505 65.5166 15.2172C65.1799 14.1839 64.5149 13.6672 63.5217 13.6672C61.855 13.6672 61.0217 15.4422 61.0217 18.9922C61.0217 20.6089 61.1732 21.9255 61.4762 22.9422C61.7961 23.9589 62.4779 24.4672 63.5217 24.4672ZM73.8731 7.61719V23.3672C73.8731 24.1839 74.134 24.7339 74.6559 25.0172C74.5213 25.2672 74.294 25.4589 73.9741 25.5922C73.6711 25.7255 73.3512 25.7922 73.0145 25.7922C72.3748 25.7922 71.895 25.6089 71.5751 25.2422C71.2553 24.8755 71.0953 24.3589 71.0953 23.6922V7.91719L73.8731 7.61719ZM86.9779 12.7172C86.9779 13.4172 86.7675 14.0839 86.3466 14.7172C85.9257 15.3339 85.387 15.8255 84.7304 16.1922C85.8415 16.4089 86.6917 16.9089 87.2809 17.6922C87.887 18.4755 88.19 19.4422 88.19 20.5922C88.19 21.7089 87.8786 22.6505 87.2557 23.4172C86.6328 24.1672 85.7995 24.7339 84.7557 25.1172C83.7287 25.4839 82.6092 25.6672 81.3971 25.6672C79.983 25.6672 78.4341 25.5422 76.7506 25.2922V9.01719C78.7372 8.88385 80.3197 8.81719 81.4981 8.81719C83.2153 8.81719 84.5537 9.10885 85.5133 9.69219C86.4897 10.2755 86.9779 11.2839 86.9779 12.7172ZM79.7052 15.6922C80.0924 15.7422 80.5217 15.7672 80.9931 15.7672C81.9863 15.7672 82.7271 15.5422 83.2153 15.0922C83.7035 14.6422 83.9476 13.9339 83.9476 12.9672C83.9476 11.3672 83.0722 10.5672 81.3213 10.5672C80.7995 10.5672 80.2607 10.6089 79.7052 10.6922V15.6922ZM79.7052 23.7672C80.3112 23.8672 80.8752 23.9172 81.3971 23.9172C82.5755 23.9172 83.4762 23.6505 84.0991 23.1172C84.7388 22.5839 85.0587 21.7672 85.0587 20.6672C85.0587 19.4172 84.7136 18.5755 84.0234 18.1422C83.35 17.6922 82.2894 17.4672 80.8415 17.4672C80.387 17.4672 80.0082 17.4922 79.7052 17.5422V23.7672ZM94.7064 12.1672C96.592 12.1672 97.9893 12.7755 98.8984 13.9922C99.8075 15.1922 100.262 16.8172 100.262 18.8672C100.262 21.0505 99.8243 22.7839 98.9489 24.0672C98.0734 25.3339 96.6593 25.9672 94.7064 25.9672C92.7872 25.9672 91.3815 25.3589 90.4893 24.1422C89.6138 22.9255 89.1761 21.2505 89.1761 19.1172C89.1761 17.0505 89.6307 15.3755 90.5398 14.0922C91.4489 12.8089 92.8377 12.1672 94.7064 12.1672ZM94.7064 24.4672C95.7502 24.4672 96.432 23.9589 96.7519 22.9422C97.0718 21.9255 97.2317 20.6089 97.2317 18.9922C97.2317 17.5089 97.0549 16.2505 96.7014 15.2172C96.3647 14.1839 95.6997 13.6672 94.7064 13.6672C93.0398 13.6672 92.2064 15.4422 92.2064 18.9922C92.2064 20.6089 92.358 21.9255 92.661 22.9422C92.9809 23.9589 93.6627 24.4672 94.7064 24.4672ZM106.902 12.1672C108.787 12.1672 110.185 12.7755 111.094 13.9922C112.003 15.1922 112.457 16.8172 112.457 18.8672C112.457 21.0505 112.02 22.7839 111.144 24.0672C110.269 25.3339 108.855 25.9672 106.902 25.9672C104.983 25.9672 103.577 25.3589 102.685 24.1422C101.809 22.9255 101.371 21.2505 101.371 19.1172C101.371 17.0505 101.826 15.3755 102.735 14.0922C103.644 12.8089 105.033 12.1672 106.902 12.1672ZM106.902 24.4672C107.945 24.4672 108.627 23.9589 108.947 22.9422C109.267 21.9255 109.427 20.6089 109.427 18.9922C109.427 17.5089 109.25 16.2505 108.897 15.2172C108.56 14.1839 107.895 13.6672 106.902 13.6672C105.235 13.6672 104.402 15.4422 104.402 18.9922C104.402 20.6089 104.553 21.9255 104.856 22.9422C105.176 23.9589 105.858 24.4672 106.902 24.4672ZM114.526 25.4172V7.91719L117.304 7.61719V25.4172H114.526ZM121.874 12.6672H124.804L120.435 17.9672L124.905 25.4172H121.672L117.657 18.4172L121.874 12.6672Z" fill="black"/>
</g>
<defs>
<linearGradient id="paint0_linear_21_15" x1="-1.0838e-06" y1="29.5807" x2="30.9478" y2="8.45881" gradientUnits="userSpaceOnUse">
<stop stop-color="#124265"/>
<stop offset="1" stop-color="#2487CE"/>
</linearGradient>
<linearGradient id="paint1_linear_21_15" x1="-6.61647e-07" y1="29.5833" x2="30.9478" y2="8.46141" gradientUnits="userSpaceOnUse">
<stop stop-color="#124265"/>
<stop offset="1" stop-color="#2487CE"/>
</linearGradient>
<linearGradient id="paint2_linear_21_15" x1="-5.47124e-07" y1="29.5833" x2="30.9478" y2="8.46142" gradientUnits="userSpaceOnUse">
<stop stop-color="#124265"/>
<stop offset="1" stop-color="#2487CE"/>
</linearGradient>
<linearGradient id="paint3_linear_21_15" x1="0.00061537" y1="29.5833" x2="30.9484" y2="8.46142" gradientUnits="userSpaceOnUse">
<stop stop-color="#124265"/>
<stop offset="1" stop-color="#2487CE"/>
</linearGradient>
<linearGradient id="paint4_linear_21_15" x1="0.000504" y1="29.5833" x2="30.9483" y2="8.46142" gradientUnits="userSpaceOnUse">
<stop stop-color="#124265"/>
<stop offset="1" stop-color="#2487CE"/>
</linearGradient>
<linearGradient id="paint5_linear_21_15" x1="-0.000842503" y1="29.5833" x2="30.947" y2="8.46144" gradientUnits="userSpaceOnUse">
<stop stop-color="#124265"/>
<stop offset="1" stop-color="#2487CE"/>
</linearGradient>
<linearGradient id="paint6_linear_21_15" x1="-0.0007069" y1="29.5859" x2="30.9471" y2="8.46403" gradientUnits="userSpaceOnUse">
<stop stop-color="#124265"/>
<stop offset="1" stop-color="#2487CE"/>
</linearGradient>
<linearGradient id="paint7_linear_21_15" x1="-0.000677559" y1="29.5831" x2="30.9472" y2="8.46123" gradientUnits="userSpaceOnUse">
<stop stop-color="#124265"/>
<stop offset="1" stop-color="#2487CE"/>
</linearGradient>
<clipPath id="clip0_21_15">
<rect width="125" height="30" fill="white"/>
</clipPath>
</defs>
</svg>
