<svg width="13" height="9" viewBox="0 0 13 9" fill="none" xmlns="http://www.w3.org/2000/svg">
<path d="M6.33491 0.179688C3.4554 0.179688 0.996308 1.97074 0 4.49894C0.996308 7.02714 3.4554 8.81819 6.33491 8.81819C9.21441 8.81819 11.6735 7.02714 12.6698 4.49894C11.6735 1.97074 9.21441 0.179688 6.33491 0.179688ZM6.33491 7.37844C4.74542 7.37844 3.4554 6.08843 3.4554 4.49894C3.4554 2.90946 4.74542 1.61944 6.33491 1.61944C7.92439 1.61944 9.21441 2.90946 9.21441 4.49894C9.21441 6.08843 7.92439 7.37844 6.33491 7.37844ZM6.33491 2.77124C5.37891 2.77124 4.6072 3.54295 4.6072 4.49894C4.6072 5.45494 5.37891 6.22664 6.33491 6.22664C7.2909 6.22664 8.06261 5.45494 8.06261 4.49894C8.06261 3.54295 7.2909 2.77124 6.33491 2.77124Z" fill="#2487CE"/>
</svg>
